<svg xmlns="http://www.w3.org/2000/svg" width="1600" height="1000" viewBox="0 0 1600 1000">
  <defs>
    <linearGradient id="bg" x1="0%" y1="0%" x2="100%" y2="100%">
      <stop offset="0%" stop-color="#E7D8B1"/>
      <stop offset="55%" stop-color="#123524"/>
      <stop offset="100%" stop-color="#1F2933"/>
    </linearGradient>
  </defs>
  <rect width="1600" height="1000" fill="url(#bg)"/>
  <circle cx="1320" cy="180" r="220" fill="#FFFDF8" fill-opacity="0.18"/>
  <circle cx="260" cy="820" r="260" fill="#FFFDF8" fill-opacity="0.12"/>
  <rect x="96" y="116" width="620" height="40" rx="20" fill="#FFFDF8" fill-opacity="0.16"/>
  <rect x="96" y="186" width="880" height="164" rx="36" fill="rgba(255,255,255,0.08)"/>
  <text x="120" y="280" fill="#ffffff" font-size="84" font-weight="800" font-family="Segoe UI, Arial, sans-serif">Athens</text>
  <text x="120" y="410" fill="#ffffff" fill-opacity="0.9" font-size="40" font-weight="600" font-family="Segoe UI, Arial, sans-serif">Athens rodent control</text>
  <g transform="translate(96 560)">
    <rect width="560" height="220" rx="32" fill="rgba(255,255,255,0.10)"/>
    <rect x="38" y="44" width="180" height="18" rx="9" fill="#FFFDF8" fill-opacity="0.35"/>
    <rect x="38" y="92" width="460" height="20" rx="10" fill="#ffffff" fill-opacity="0.82"/>
    <rect x="38" y="132" width="380" height="20" rx="10" fill="#ffffff" fill-opacity="0.62"/>
    <rect x="38" y="176" width="210" height="18" rx="9" fill="#1F2933" fill-opacity="0.75"/>
  </g>
  <g transform="translate(1020 508)">
    <rect width="360" height="272" rx="36" fill="rgba(255,255,255,0.12)"/>
    <circle cx="180" cy="84" r="34" fill="#FFFDF8" fill-opacity="0.28"/>
    <rect x="54" y="148" width="252" height="18" rx="9" fill="#ffffff" fill-opacity="0.78"/>
    <rect x="54" y="188" width="198" height="18" rx="9" fill="#ffffff" fill-opacity="0.58"/>
  </g>
</svg>